<?xml version="1.0" encoding="UTF-8" standalone="no"?>
<!DOCTYPE svg PUBLIC "-//W3C//DTD SVG 1.1//EN" "http://www.w3.org/Graphics/SVG/1.1/DTD/svg11.dtd">
<svg width="100%" height="100%" viewBox="0 0 391 96" version="1.1" xmlns="http://www.w3.org/2000/svg" xmlns:xlink="http://www.w3.org/1999/xlink" xml:space="preserve" xmlns:serif="http://www.serif.com/" style="fill-rule:evenodd;clip-rule:evenodd;stroke-linejoin:round;stroke-miterlimit:2;">
    <g>
        <g>
            <g>
                <path d="M320.89,7.402L284.105,19.427L320.89,19.427L320.89,7.402Z" style="fill:white;"/>
                <path d="M299.33,80.643L291.643,80.643L291.643,94.381L326.284,94.381L326.284,80.643L318.193,80.643L318.193,23.869L290.16,23.869L290.16,37.607L299.33,37.607L299.33,80.643Z" style="fill:white;fill-rule:nonzero;"/>
            </g>
            <g>
                <path d="M53.268,80.643L29.786,80.643L29.786,53.116L53.537,53.116L53.537,38.568L29.786,38.568L29.786,13.738L52.863,13.738L53.672,27.772L69.838,27.772L69.03,0L0,0L0,13.738L10.114,13.738L10.114,80.643L1.618,80.643L1.618,94.381L69.434,94.381L70.513,64.72L54.346,64.72L53.268,80.643Z" style="fill:white;fill-rule:nonzero;"/>
                <path d="M85.976,80.643L78.289,80.643L78.289,94.381L112.93,94.381L112.93,80.643L104.839,80.643L104.839,0L75.187,0L75.187,13.738L85.976,13.738L85.976,80.643Z" style="fill:white;fill-rule:nonzero;"/>
                <path d="M153,80.643L143.695,80.643L143.695,94.381L181.983,94.381L181.983,80.643L172.672,80.643L172.672,57.971L185.897,57.971C204.644,57.971 217.175,45.579 217.175,27.906C217.175,9.428 205.453,0 182.658,0L143.695,0L143.695,13.738L153,13.738L153,80.643ZM172.672,44.232L172.672,13.738L183.063,13.738C192.509,13.738 198.312,19 198.312,28.715C198.312,38.295 193.184,44.232 183.333,44.232L172.672,44.232Z" style="fill:white;fill-rule:nonzero;"/>
                <path d="M262.56,52.863C248.796,52.863 239.215,53.536 232.07,56.095C224.66,58.788 217.923,65.389 217.923,75.513C217.923,86.571 225.603,96 241.509,96C253.383,96 259.86,91.016 264.582,80.372L264.852,80.372C264.178,83.067 263.908,85.492 263.908,90.071L263.908,94.381L287.626,94.381L287.626,80.643L279.67,80.643C279.94,70.653 280.344,60.942 280.344,49.353C280.344,28.851 268.353,22.251 249.47,22.251C236.921,22.251 225.875,26.965 221.294,29.524L221.294,47.463L237.46,47.463L237.46,38.014C240.699,36.799 246.501,35.989 249.2,35.989C258.107,35.989 262.56,38.824 262.56,49.488L262.56,52.863ZM262.29,64.444C262.29,77.402 254.733,82.261 247.176,82.261C239.754,82.261 236.786,77.942 236.786,73.757C236.786,67.683 241.644,64.444 257.027,64.444L262.29,64.444Z" style="fill:white;fill-rule:nonzero;"/>
                <path d="M370.01,44.354L386.985,44.354L386.985,26.965C376.612,23.463 367.176,22.251 359.619,22.251C345.047,22.251 328.61,27.907 328.61,45.298C328.61,55.416 333.864,62.161 346.124,64.05L362.047,66.478C370.278,67.692 372.707,69.715 372.707,73.628C372.707,81.047 362.857,82.261 358.943,82.261C354.895,82.261 349.497,81.047 346.394,79.968L346.394,71.739L329.419,71.739L329.419,91.555C336.963,94.249 348.688,96 357.189,96C381.734,96 390.491,84.147 390.491,71.604C390.491,58.788 383.755,52.583 367.58,50.289L352.737,48.131C347.338,47.322 346.394,45.973 346.394,42.6C346.394,38.688 350.442,35.18 359.079,35.18C362.588,35.18 366.232,35.855 370.01,37.204L370.01,44.354Z" style="fill:white;fill-rule:nonzero;"/>
            </g>
        </g>
    </g>
</svg>
