<?xml version="1.0" encoding="utf-8"?>
<!-- Generator: Adobe Illustrator 26.0.2, SVG Export Plug-In . SVG Version: 6.00 Build 0)  -->
<svg version="1.1" id="Capa_1" xmlns="http://www.w3.org/2000/svg" xmlns:xlink="http://www.w3.org/1999/xlink" x="0px" y="0px"
	 viewBox="0 0 480.1 238" style="enable-background:new 0 0 480.1 238;" xml:space="preserve">
<style type="text/css">
	.st0{fill:#D1D1D1;}
	.st1{fill:#FFFFFF;}
</style>
<g>
	<path class="st0" d="M63.8,215.5v-12.7h3.6v12.7H63.8z M57.7,215.5v-12.7h3.6v12.7H57.7z"/>
	<path class="st0" d="M77.5,225.6h5.1l-2.4-15.1H80L77.5,225.6z M84.6,237.8l-1.3-8.1H77l-1.2,8.1h-4.5l5.9-34.5h6.3l5.9,34.5H84.6z
		"/>
	<path class="st0" d="M102.1,233.5c1.4,0,2.4-0.5,2.8-1.5c0.5-1,0.7-2.3,0.7-4.1v-15.2c0-1.7-0.3-3-0.8-3.9c-0.5-1-1.5-1.5-3-1.5
		h-3.4v26.1h3.7V233.5z M93.9,237.8v-34.5h8.5c5.2,0,7.8,2.6,7.8,7.9v18.1c0,2.9-0.7,5-2,6.4s-3.3,2.1-5.9,2.1H93.9z"/>
	<path class="st0" d="M127.9,237.8l-7.9-26.7h-0.2c0.1,2.6,0.2,5,0.2,7.3v19.4h-4.1v-34.5h6.1l7.2,24.8h0.2c-0.1-3.3-0.2-6-0.2-8.4
		v-16.4h4.1v34.5L127.9,237.8L127.9,237.8z"/>
	<path class="st0" d="M155.9,233.5c1.4,0,2.4-0.5,2.8-1.5c0.5-1,0.7-2.3,0.7-4.1v-15.2c0-1.7-0.3-3-0.8-3.9c-0.5-1-1.5-1.5-3-1.5
		h-3.4v26.1h3.7V233.5z M147.7,237.8v-34.5h8.5c5.2,0,7.8,2.6,7.8,7.9v18.1c0,2.9-0.7,5-2,6.4s-3.3,2.1-5.9,2.1H147.7z"/>
	<path class="st0" d="M169.6,237.8v-34.5h12.5v4.2h-7.9v10.1h7.2v4.3h-7.2v11.7h8.3v4.2L169.6,237.8L169.6,237.8z"/>
	<path class="st0" d="M187.5,237.8v-34.5h4.7v30.2h8.5v4.3H187.5z"/>
	<path class="st0" d="M219.2,220h4c1.1,0,1.9-0.3,2.4-0.9s0.7-1.5,0.7-2.6v-5.7c0-1-0.2-1.8-0.7-2.4s-1.3-0.8-2.4-0.8h-4V220z
		 M219.2,224v13.7h-4.7v-34.5h9.6c2.4,0,4.1,0.6,5.1,1.8c1,1.2,1.5,2.9,1.5,5.1v7c0,2.2-0.5,3.9-1.5,5.1s-2.7,1.8-5.1,1.8H219.2z"/>
	<path class="st0" d="M235.9,237.8v-34.5h12.5v4.2h-7.9v10.1h7.2v4.3h-7.2v11.7h8.3v4.2L235.9,237.8L235.9,237.8z"/>
	<path class="st0" d="M265.4,210.7c0-1.1-0.2-1.9-0.7-2.4s-1.3-0.8-2.4-0.8h-4v11.4h4c0.9,0,1.7-0.3,2.2-0.8s0.8-1.4,0.8-2.8v-4.6
		H265.4z M253.7,237.8v-34.5h9.6c2.4,0,4.1,0.6,5.1,1.8c1,1.2,1.5,2.9,1.5,5.1v4.7c0,1.6-0.3,2.9-0.9,3.8s-1.5,1.5-2.6,1.8v0.2
		c1.2,0.2,2.1,0.8,2.7,1.7c0.6,0.9,0.9,2.2,0.9,3.9v11.5h-4.6V226c0-1.1-0.2-1.9-0.6-2.4s-1.2-0.8-2.3-0.8h-4.2v15L253.7,237.8
		L253.7,237.8z"/>
	<path class="st0" d="M275.3,237.8v-34.5h4.7v34.5H275.3z"/>
	<path class="st0" d="M297,211.5c0-1.4-0.3-2.4-0.9-3.1s-1.5-1.1-2.7-1.1c-1.1,0-2,0.4-2.6,1.1s-0.9,1.7-0.9,3.1v18.2
		c0,2.7,1.2,4.1,3.6,4.1c1.1,0,2-0.3,2.6-1s0.9-1.7,0.9-3.1V211.5z M301.6,229.4c0,2.9-0.7,5.1-2.1,6.5s-3.4,2.1-6,2.1
		c-2.7,0-4.8-0.8-6.2-2.3c-1.4-1.5-2.1-3.7-2.1-6.5v-17.5c0-2.8,0.7-5,2.2-6.5c1.4-1.6,3.5-2.3,6.1-2.3s4.6,0.8,6,2.4
		s2.1,3.8,2.1,6.6V229.4z"/>
	<path class="st0" d="M315.2,233.5c1.4,0,2.4-0.5,2.8-1.5c0.5-1,0.7-2.3,0.7-4.1v-15.2c0-1.7-0.3-3-0.8-3.9c-0.5-1-1.5-1.5-3-1.5
		h-3.4v26.1h3.7V233.5z M307,237.8v-34.5h8.5c5.2,0,7.8,2.6,7.8,7.9v18.1c0,2.9-0.7,5-2,6.4s-3.3,2.1-5.9,2.1H307z"/>
	<path class="st0" d="M328.9,237.8v-34.5h4.7v34.5H328.9z"/>
	<path class="st0" d="M351,213.4v-2c0-1.3-0.3-2.3-0.9-3s-1.5-1.1-2.8-1.1c-1.2,0-2.2,0.3-2.8,1c-0.6,0.7-0.9,1.5-0.9,2.5v1.3
		c0,0.8,0.1,1.4,0.4,1.9s0.8,1.1,1.6,1.8c0.6,0.5,1.2,0.9,1.9,1.4c0.7,0.5,1.4,0.9,2.1,1.4s1.4,0.9,2,1.4c0.7,0.5,1.2,0.9,1.7,1.3
		c0.8,0.7,1.4,1.5,1.8,2.4s0.7,2.2,0.7,3.8v2.1c0,2.7-0.7,4.8-2,6.2c-1.3,1.4-3.5,2.2-6.6,2.2c-3,0-5.2-0.7-6.5-2.2s-2-3.6-2-6.5v-2
		h4.4v2c0,1.4,0.3,2.5,0.9,3.2s1.6,1.1,3.1,1.1c1.2,0,2.1-0.3,2.8-0.9c0.7-0.6,1-1.6,1-3v-1.6c0-0.5,0-1-0.1-1.4s-0.2-0.8-0.4-1.1
		c-0.2-0.3-0.4-0.6-0.7-0.9c-0.3-0.3-0.7-0.6-1.1-1c-1.2-1-2.4-1.9-3.7-2.7c-1.2-0.8-2.4-1.7-3.5-2.7c-0.9-0.9-1.5-1.8-2-2.8
		s-0.7-2.1-0.7-3.5v-1.5c0-2.3,0.6-4.1,1.9-5.6c1.3-1.4,3.4-2.2,6.3-2.2c1.6,0,2.9,0.2,3.9,0.7s1.9,1.1,2.5,1.9s1.1,1.7,1.3,2.9
		c0.3,1.1,0.4,2.3,0.4,3.6v1.5h-4V213.4z"/>
	<path class="st0" d="M381.4,237.8v-19.1c0-2.1,0.1-4.6,0.2-7.5h-0.2l-5.8,26.5h-4.3l-5.8-26.5h-0.2c0.1,2.9,0.2,5.4,0.2,7.5v19.1
		h-4.2v-34.5h7.1l5.1,25.3h0.2l5.1-25.3h6.9v34.5H381.4z"/>
	<path class="st0" d="M402.7,211.5c0-1.4-0.3-2.4-0.9-3.1s-1.5-1.1-2.7-1.1c-1.1,0-2,0.4-2.6,1.1s-0.9,1.7-0.9,3.1v18.2
		c0,2.7,1.2,4.1,3.6,4.1c1.1,0,2-0.3,2.6-1s0.9-1.7,0.9-3.1V211.5z M407.3,229.4c0,2.9-0.7,5.1-2.1,6.5s-3.4,2.1-6,2.1
		c-2.7,0-4.8-0.8-6.2-2.3c-1.4-1.5-2.1-3.7-2.1-6.5v-17.5c0-2.8,0.7-5,2.2-6.5c1.4-1.6,3.5-2.3,6.1-2.3s4.6,0.8,6,2.4
		s2.1,3.8,2.1,6.6V229.4z"/>
	<path class="st0" d="M418.7,215.5v-12.7h3.6v12.7H418.7z M412.6,215.5v-12.7h3.6v12.7H412.6z"/>
	<path class="st1" d="M26.6,128.6h21.2L37.6,65.7h-0.9L26.6,128.6z M55.9,179l-5.6-33.7H24L18.8,179H0L24.4,35.6h26.1L74.9,179H55.9
		z"/>
	<path class="st1" d="M124.3,128.7h15.8v20.6c0,10.4-2.4,18.1-7.2,23.2s-11.9,7.6-21.1,7.6c-9.6,0-16.9-2.7-21.7-8.1
		s-7.2-13.1-7.2-23.1V85.5c0-10.4,2.4-18.1,7.2-23.2c4.8-5.1,11.9-7.6,21.1-7.6c9.4,0,16.6,2.5,21.5,7.6c4.9,5.1,7.4,12.7,7.4,23
		V100h-15.8V85.3c0-4.8-1.1-8.5-3.2-11.1c-2.1-2.6-5.3-3.9-9.5-3.9c-8.3,0-12.4,4.9-12.4,14.8v65.1c0,4.7,1,8.3,3,10.8
		s5.1,3.7,9.5,3.7c8.4,0,12.6-4.8,12.6-14.5V128.7z"/>
	<path class="st1" d="M191.7,128.7h15.8v20.6c0,10.4-2.4,18.1-7.2,23.2s-11.9,7.6-21.1,7.6c-9.6,0-16.9-2.7-21.7-8.1
		s-7.2-13.1-7.2-23.1V85.5c0-10.4,2.4-18.1,7.2-23.2c4.8-5.1,11.9-7.6,21.1-7.6c9.4,0,16.6,2.5,21.5,7.6s7.4,12.7,7.4,23V100h-15.8
		V85.3c0-4.8-1.1-8.5-3.2-11.1c-2.1-2.6-5.3-3.9-9.5-3.9c-8.3,0-12.4,4.9-12.4,14.8v65.1c0,4.7,1,8.3,3,10.8s5.1,3.7,9.5,3.7
		c8.4,0,12.6-4.8,12.6-14.5L191.7,128.7L191.7,128.7z"/>
	<path class="st1" d="M217.4,179V55.8H262v15h-28.2v36h25.8V122h-25.8v41.9h29.7v15h-46.1V179z"/>
	<path class="st1" d="M314.1,92.1v-7c0-4.6-1-8.2-3.1-10.9c-2-2.7-5.4-4-10.1-4c-4.5,0-7.7,1.2-9.8,3.7c-2.1,2.5-3.2,5.5-3.2,9.1
		v4.8c0,2.7,0.5,5,1.5,6.9s2.9,4,5.8,6.3c2.1,1.6,4.4,3.2,7,4.9c2.5,1.7,5,3.3,7.5,4.9c2.5,1.6,4.9,3.2,7.2,4.8
		c2.3,1.6,4.4,3.2,6.1,4.6c2.8,2.5,5,5.4,6.6,8.7c1.5,3.3,2.3,7.9,2.3,13.5v7.6c0,9.6-2.4,17-7.1,22.2c-4.8,5.1-12.6,7.7-23.5,7.7
		s-18.7-2.6-23.4-7.9c-4.7-5.3-7-13-7-23.1v-7h15.8v7.2c0,5.1,1.1,8.9,3.3,11.5c2.2,2.6,5.9,3.9,10.9,3.9c4.3,0,7.7-1.1,10-3.3
		c2.3-2.2,3.5-5.8,3.5-10.8V145c0-1.9-0.1-3.5-0.4-4.9c-0.2-1.4-0.7-2.7-1.3-3.9c-0.6-1.2-1.5-2.3-2.5-3.3c-1.1-1-2.3-2.2-3.8-3.4
		c-4.3-3.6-8.7-6.7-13.2-9.5c-4.5-2.7-8.6-5.9-12.4-9.6c-3.1-3.2-5.4-6.6-7-10c-1.6-3.5-2.4-7.7-2.4-12.6v-5.4
		c0-8.2,2.3-14.8,7-19.9c4.6-5.1,12.1-7.7,22.4-7.7c5.6,0,10.2,0.8,13.9,2.4c3.7,1.6,6.7,3.8,8.9,6.7c2.2,2.8,3.8,6.2,4.7,10.2
		c0.9,4,1.4,8.2,1.4,12.8v5.4h-15.6V92.1z"/>
	<path class="st1" d="M421.2,111.9c0.4-1.7,0.1-3.6-0.1-5.3c-0.3-3-1-6-1.9-8.9c-0.6-1.9-3.8-1.3-3.1,0.7c1.2,3.6,2.1,7.5,2,11.3
		c0,0.6,0.2,3.5-1.6,1.7c-0.6-0.6-0.6-2.2-0.7-3c-0.2-1.4-0.2-2.8-0.4-4.2c-0.2-2.4-0.6-6.5-3-8c-2.6-1.6-4.2,1.3-4.8,3.4
		c-0.9,3.4-0.7,6.9,0,10.3c0.6,2.9,1.2,6.9,3.2,9.1c1.8,2,4.6,2.1,6.7,0.7C420.2,117.9,420.9,114.8,421.2,111.9z"/>
	<path class="st1" d="M405.4,103.3c0,0-0.9,17.9,9.8,18.5c0,0,5.1,0.4,8-11.9c0,0,3.3-17-12.4-22.1c0,0-8.6-2.4-13.6,13.4
		c0,0-0.4,7-0.9,19.2c0,0-0.3,2.1,1.6,4.4c0,0,7,8.2,12.1,10.3c0,0,13.8,4.2,20.9-10.3c0,0,7.9-13.7-0.5-36.2c0,0-12.6-20.4-36.7-14
		c0,0-17.1,6.2-23,21.4c0,0-9,17.8-3.9,35c0,0,5.1,24.2,17.5,29.8c0,0,19.7,11.8,34.9,9.5c0,0,27.3,1.2,36.9-36.3
		c0,0,5.1-20.5,4.9-24.5c0,0-3.3-23-3.7-27.7c0,0-1.9-9.8-11.7-16.4v1.3c0,0,9.9,10.8,9.9,20.4c0,0,3,9.1,3,12.7
		c0,0,2.5,12.2-2.8,29.8c0,0-5,21.2-11.2,26.9c0,0-8.1,10.4-23.2,12c0,0-15.2,4.3-35.7-8.8l-6.6-4.1c0,0-2.4-1.3-0.6-3.5
		c0,0-0.9-2,16.3,8.8c0,0,12.9,7.7,27.4,4.2c0,0,17.6-2.4,25.7-20.9c0,0,9.8-31.2,7.8-36c0,0-3.1-18.3-3.5-22.9
		c0,0-4.2-18.5-29.7-32.6c0,0-18.3-11.8-44.8-4.9c0,0-15.8,5.3-21.4,8.3c0,0-6,1.4-1.9-3c0,0,29.2-12.7,42-10.3c0,0,5-1.1-3.7-1.6
		c0,0-6.1,0-30.5,6.7c0,0-7.1,0.3-2.4-3.3c0,0,34.9-8.2,40.7-6c0,0,13.5,1,29.6,15l10.7,8.9c0,0,3.6,2.3,0.7-1.4
		c0,0-15.7-16.3-34.3-22c0,0-21-5.8-37.2,1.2c0,0-9.4,2.8-5.1-2.2c0,0,18.4-10,46.3-1.3c0,0,10.8,2.5,28.9,17.6
		c0,0,15.9,12.4,19.5,24c0,0,7.2,35.3,4.7,47.8c0,0-0.1,18.8-7,27.4c0,0-5.9,5.3,0.2-8.9c0,0,4-10.9,3.2-11.8c0,0-0.6-1.5-1.4,2.5
		c0,0-4.5,14.8-8.6,21.7c0,0-5.7,7.8-12.7,11.1l-16.9,8.2c0,0-8.9,5.4-27.2-1.2c0,0-28-10-35.6-31.3c0,0-7.8-20.2-4.5-32.2
		c0,0,7.8-32.5,27.1-41.2c0,0,15.9-10,31-4.8c0,0,9.5,3.8,11.6,5.6c0,0,4,2.4,2.7,0.4c0,0-15.1-17.3-42.5-6c0,0-12.6,2.5-26.1,27.5
		c0,0-7.7,12-7.2,30.9c0,0,1.9,17.7,6.8,25.2c0,0,6.1,10.4,12.8,15.5c0,0,19.2,12,28.1,14.3c0,0,4.2,1.1,4.8,1.1
		c0,0,4.5,2.5-0.6,3.1c0,0-3.5,2.6-25.4-10.2c0,0-7.2-3.6-11.4-8.5c0,0-13.3-12.8-15.6-24.8c0,0-6.1-23-1.1-35.6
		c0,0,11-24.2,16.9-28c0,0,2.7-3.5-1.2-0.5c0,0-6.9,5.5-15.2,18.9c0,0-5,5-6.3,9.2c0,0-1.5,6.9,1.2,17.4l1.9,14.1
		c0,0,2.3,8.9,4,12.2c0,0,7.3,14.2,10.4,16.7c0,0,4,4.1,4.5,6.6c0,0-1.7,2.9-8.4-6.6c0,0-8.3-12.5-10.6-17.4c0,0-3.8-9.3-3.5-12
		L339,110c0,0-1.1-9.4,5.4-15.5l12.7-16.6c0,0,7.4-10.1,20.2-13.4c0,0,24.1-11,40.4-2.5c0,0,18.3,8.5,23.5,32c0,0,6.2,15.7-4.3,42.2
		c0,0-3.1,8.7-11.6,12.5c0,0-6.2,1-1.3-3.4c0,0,8.3-2,12.4-17.3c0,0,5.4-22.2,1.5-29.4c0,0-1.7-6.3-2.6-10.8c0,0-1.7-7.9-18.5-16.8
		c0,0-16.4-7.9-31.9,1c0,0-13.6,5-22.6,23.9c0,0-7.3,15.4-5.1,16.6l1.9-4.9c0,0,2.9-4.4,1.9,1.2c0,0,0.4,5.8-3.5,8.8
		c0,0-2.3,1,0.5,11.4c0,0,2.8,18.8,17.2,32.4c0,0,3.3,4.2,15.9,9.1c0,0,12.8,3.9,15.4,5.1c0,0,8,0.8,10.6-0.7c0,0,1.9-1.2-2.7-1.3
		c0,0-11.2-0.2-23.1-5.2c0,0-16.8-6.7-24-22.6c0,0-11.5-21-3-42.7c0,0,5.9-21.2,16.7-26.1c0,0,16.1-11.5,30.3-5.8
		c0,0,19.4,5.8,23.4,20c0,0,6.9,16.1-1.9,38.8c0,0-3.9,12.2-13.3,15.1c0,0-13.9,6.8-24.6-0.3c0,0-8.1-5.6-6.3-9.6c0,0,3-0.6,5.9,4.2
		c0,0,2.3,3.3,10.1,5.2c0,0,12.1,1.7,21.8-8.4c0,0,3.1-3.5-3,0c0,0-7.3,5.5-22.3,3.7c0,0-8.7-1.1-8.1-13.3c0,0-2.6-17.2,1.3-28.7
		c0,0,3.5-11.3,10.8-12.2c0,0,4.9-1.8-1.7-0.7c0,0-7.1,0.6-15.1,18c0,0-1.3,2.7,0.7,9c0,0,2.5,3.8,1.6,12.7c0,0,1.2,6.2-1.2,6.9
		c0,0-2.3,1.4-4-9.1c0,0-3.2-7.7-2.5-12.8c0,0,4.6-21.7,16.8-27.5c0,0,5.2-4,15.3,2.9c0,0,15,8.4,10,26.8c0,0-2.1,12.9-10.4,13.4
		c0,0-9.3,1.3-12.2-11.4C403,113.6,402.1,102,405.4,103.3z"/>
	<path class="st1" d="M416.1,93.9c0,0-0.3-5.7-8.4-3.2c0,0-11.2,4.4-9.3,24.7c0,0,1.2,13,11.6,13.7l8-0.2c0,0,5,0.1-0.8,1.3
		c0,0-7.6-0.2-8.4,1.8c0,0-0.5,2.7,5.7,1.8c0,0,10.8-0.6,14.9-12.8c0,0,3.8-14.2,2.1-20.9c0,0-0.2-15.9-18.6-23.5
		c0,0-12.7-7.4-31,8.1c0,0-18.3,13.7-11.7,45.6c0,0,3,20.9,21.7,26.6c0,0,12.8,4.8,25.5,2.4c0,0,19.9-3.8,27.1-27.8
		c0,0,9.3-28.6-0.1-46c0,0-7.1-22.1-28.6-29.7c0,0-9.1-4.4-26.9-2l-15.3,1.4c0,0-8.6,1.4-18.7,9.6c0,0-12.2,9.5-15.2,18.2
		c0,0-0.4,5.1,3.3,0c0,0,5.4-10.7,18.8-19.4c0,0,9.1-5.6,16-5.5c0,0,16.7-0.8,22.1-1.6c0,0,13.9-0.6,23.5,7.3
		c0,0,11.8,8.5,17.3,20.9c0,0,5.9,13.4,4.1,30.2c0,0-2.2,22.7-14,32.9c0,0-9.2,10-22,8.5c0,0-13.7,0.2-22.1-8.5c0,0-8.4-12-8.5-25.8
		c0,0,3.4-12.6,3.6-17.7c0,0,2-9.8,8-14.4c0,0,5.3-5,3-6.2c0,0-2.3-2.7-11.8,11.8c0,0-4,6.5-6.3,20.5c0,0-1.1,14,5.2,25.6l3,5.2
		c0,0,0.5,2.4-2-0.8c0,0-7.6-8.8-8.7-27.3c0,0-1.1-21.1,12.5-31.9c0,0,9.1-8,18.1-8.9c0,0,10.1,0.6,14.4,4c0,0,10.1,9.2,10.8,17.1
		c0,0,2.9,12.1-2.9,22.8c0,0-0.4,4.8-13.8,4.7c0,0-10.6-1.1-10-15.1c0,0-0.1-13.4,7.2-17.5c0,0,3.5-0.7,5.3-0.2
		C414.6,94.3,415.7,95.6,416.1,93.9z"/>
	<path class="st1" d="M382.3,118.3c0,0,2,4.9,2.3,13.1c0,0,3.5,14,13.3,17.5c0,0,13.4,4.3,19.4,0.5c0,0,3-1.7,3.3,0.3
		c0,0,1.4,2.3-4,3.6c0,0-7.3,3-16.8-0.2c0,0-9-1.6-16.5-15c0,0-4.2-9.5-2.9-16.5C380.3,121.5,380.9,116.6,382.3,118.3z"/>
	<path class="st1" d="M400.3,161.4c0,0-1.6-2.5,15.9,0.1c0,0,17.8-5.5,23-13.1c0,0,8.3-13.9,9.3-21.7c0,0,3.1-18.9,1.4-24.9
		c0,0-2.4-16.4-4.9-20.3c0,0-7.3-15.3-14.7-19c0,0-11.6-7.7-22.9-10.2c0,0-13.7-3.1-23.1-1.1c0,0-13.5,2.8-21.1,7.1l-11.6,7.2
		c0,0-2.9,3-4.7,0.4c0,0-1.8-1,4-4.1c0,0,13.5-8.9,20.3-10.8c0,0,9.5-3.6,18.8-3.4c0,0,9.9-0.4,18.4,1.6c0,0,10.5,2.4,17.2,6.4
		c0,0,7.8,4.1,12.5,9.5c0,0,7.6,9,7.8,10.2c0,0,6.2,11.8,6.8,20c0,0,4.7,18.7-1.6,35.1c0,0-4.4,16.8-10.4,21.9c0,0-11.2,9-20,11.7
		c0,0-8.6,3.5-19-1.3L400.3,161.4z"/>
	<path class="st1" d="M430.1,173.4l5.6-2.6c0,0,4.7-0.5,1.7,2.7c-0.5,0.5-10.1,5.3-10.1,5.3s-1,0.2-2.9-0.5
		C424.4,178.3,423.1,175.9,430.1,173.4z"/>
	<path class="st1" d="M455.5,7.5c0,0,9.6,5.8,10.5,12.7c0,0,1.2,4.1-3.8-0.3c0,0-8.9-7.4-10.3-11.6C451.9,8.3,453.2,6.3,455.5,7.5z"
		/>
	<path class="st1" d="M438.1,1.3c0,0,7.2,4.2,25.9,22.5c0,0,6.5,4.9,10.8,16.7l2.4,6.1c0,0,0,4.8-3-0.3c0,0-5.3-10.2-5.4-11.3
		c0,0-3.5-6.6-9.6-11c0,0-16.8-16-22-19.1C437.2,4.9,433,0.6,438.1,1.3z"/>
	<path class="st1" d="M424,0.1c0,0,3-1.4,9.4,4.6c0,0,22.1,18.9,22.2,19c0,0.1,12.5,10.4,15,17.3c0,0,5.5,14,7.4,22l2.1,8
		c0,0,0.4,3-1.3,3.4c0,0-2.7-0.2-2.1-4.8c0,0-1.7-11.1-8.8-17.2c0,0-7.9-8-9.6-8.7c0,0-32-25.6-33.2-26.9c-1.2-1.3-9.3-6.8-14.7-8.2
		l-4.2-0.8c0,0-2.9-1.1,0.6-2.4c3.5-1.3,15.3,4.9,15.3,4.9s4.1,2,7.9,5.6c3.7,3.6,29.2,24.7,29.2,24.7s1.3,1.3,1.7,1.1
		c0.4-0.3-0.5-1.8-4.9-5.5S424.3,8.7,424.3,8.7s-1.3-1.5-10.1-3.9c0,0-6-1.7,1-2.8s37.5,26.5,37.5,26.5s12.2,10.5,16.1,19.4
		s1.2-1.8,1.2-1.8s-1.3-5.3-6.5-10.1c-5.2-4.9-32.3-28.9-32.3-28.9S420.6,2.2,424,0.1z"/>
	<path class="st1" d="M399.8,8.8c0,0,6.4-3.3,19.7,6.2c0,0,35.9,27.5,38,30.2c0,0,14.9,14.6,17.8,27.8l2.6,10.1c0,0,1,3.3-0.9,4.7
		c0,0-2.8,0.2-2.2-5.7c0,0-3.3-14.2-7.3-17.8c0,0-12.1-18.9-24.8-27.4l-21.2-17.2c0,0-6.6-5-11.2-6.4c0,0-7.3-3-9.7-2.8
		C400.7,10.6,398.1,10.1,399.8,8.8z"/>
	<path class="st1" d="M391.5,13.5c0,0,0.9-6.9,26.7,5.7c0,0,4,1.9,12.1,10.2c0,0,23.8,18.8,29.3,28.2c0,0,16.7,19.5,16,37.5
		c0,0,0.6,14.6-1.2,19.2c0,0-1,3.7-2.8,2.6c0,0-2.3-1.5,0.3-7.5c0,0,2.7-20.8-2.4-28c0,0-9.5-21.7-18.1-27.8c0,0-15.8-19.5-35.4-28
		c0,0-15.2-6-27.7-5.4c0,0-5.4-0.6-2.7-2.7c0,0,7.2-3.2,24.8,3.3l6.5,2.2c0,0,4.1,0.3-4.1-3c0,0-17.6-6.5-21.7-4.7L391.5,13.5z"/>
	<path class="st1" d="M465.8,136.3c0,0,3.9,5.1,3.4-24.7c0,0-1-26.6-2.7-30c0,0-1.3-8.2-15.2-23.5c0,0-9.6-15-32.1-29.3
		c0,0-12.6-6.7-24.5-6.6c0,0-16.8-3.2-15.6,1.1c0,0-0.3,2.5,6.9,2.1c0,0,10.5-2.6,26.3,4.3c0,0,16.8,7.1,20.3,12.6
		c0,0,4.2,3.2-13.8-7.8c0,0-15.1-9.9-37.6-8.2c0,0-11.3,1.4-10.2,6.6c0,0,0.7,2.4,8.9-2.5c0,0,14.1-2.7,30.8,3.6
		c0,0,11.8,4.5,23.2,13.1c0,0,14.9,9.8,23.5,22.8c0,0,6.7,9.2,7.2,17.7c0,0,1.9,21.7,1.3,24.1c0,0,0.4,11.4,0.1,14
		C465.9,125.9,462.9,134.9,465.8,136.3z"/>
</g>
</svg>
