<?xml version="1.0" encoding="utf-8"?>
<!-- Generator: Adobe Illustrator 23.0.4, SVG Export Plug-In . SVG Version: 6.00 Build 0)  -->
<svg version="1.1" id="Layer_1" xmlns="http://www.w3.org/2000/svg" xmlns:xlink="http://www.w3.org/1999/xlink" x="0px" y="0px"
	 viewBox="0 0 220 72.4" style="enable-background:new 0 0 220 72.4;" xml:space="preserve">
<style type="text/css">
	.st0{fill:#00ACAE;}
	.st1{fill:#C0E338;}
	.st2{fill:#B94FA8;}
	.st3{fill:#FF1A6E;}
	.st4{fill:#2E3192;}
	.st5{fill-rule:evenodd;clip-rule:evenodd;fill:#FF5E23;}
	.st6{fill-rule:evenodd;clip-rule:evenodd;fill:#FFE731;}
	.st7{fill-rule:evenodd;clip-rule:evenodd;fill:#FFFFFF;}
</style>
<g id="Grupo_6907" transform="translate(-982 -67)">
	<circle id="Elipse_1" class="st0" cx="1138.6" cy="85.5" r="2.6"/>
	<circle id="Elipse_2" class="st1" cx="1154.3" cy="70" r="2.6"/>
	<circle id="Elipse_3" class="st2" cx="1167" cy="85.7" r="2.6"/>
	<circle id="Elipse_4" class="st3" cx="1182.9" cy="70" r="2.6"/>
	<circle id="Elipse_5" class="st4" cx="1199" cy="85.7" r="2.6"/>
	<path id="Trazado_2" class="st5" d="M1184.7,116.7c0,1.4-1.2,2.6-2.6,2.6c-1.4,0-2.6-1.2-2.6-2.6c0-1.4,1.2-2.6,2.6-2.6
		C1183.5,114.1,1184.7,115.3,1184.7,116.7L1184.7,116.7z"/>
	<path id="Trazado_3" class="st6" d="M1194.2,136.2c0,1.4-1.2,2.6-2.6,2.6s-2.6-1.2-2.6-2.6s1.2-2.6,2.6-2.6
		C1193.1,133.6,1194.2,134.7,1194.2,136.2z"/>
	<g id="Grupo_6878" transform="translate(982 67)">
		<path id="Trazado_4" class="st7" d="M59,63.5h3.5v-0.9H60v-1.7h2.3V60H60v-1.5h2.5v-0.9H59V63.5z M113.2,60.9l0.5-1.6
			c0.1-0.3,0.1-0.6,0.2-0.9h0.1c0,0.3,0.1,0.6,0.2,0.9l0.5,1.6H113.2z M113.2,57.7l-1.7,5.7h1.1l0.5-1.6h1.8l0.5,1.6h1.1l-1.7-5.7
			L113.2,57.7z M56.8,59.7c0,1-0.4,1.2-1.2,1.2c-0.2,0-0.4,0-0.5,0v-2.4h0.1c1.1,0,1.6,0,1.6,1.1L56.8,59.7z M55.5,57.6
			c-0.5,0-1,0-1.5,0v5.7h1v-1.6c0.2,0,0.4,0,0.5,0c1.1,0,2.2-0.3,2.2-2v-0.1C57.8,57.9,56.7,57.6,55.5,57.6L55.5,57.6z M109.7,59.7
			c0,1-0.4,1.2-1.2,1.2c-0.2,0-0.4,0-0.5,0v-2.4h0.1c1.1,0,1.6,0,1.6,1.1L109.7,59.7z M108.4,57.6c-0.5,0-1,0-1.5,0v5.7h1v-1.6
			c0.2,0,0.4,0,0.5,0c1.1,0,2.2-0.3,2.2-2v-0.1C110.7,57.9,109.7,57.6,108.4,57.6L108.4,57.6z M48.2,60.9l0.5-1.6
			c0.1-0.3,0.1-0.6,0.2-0.9h0.1c0,0.3,0.1,0.6,0.2,0.9l0.5,1.6H48.2z M48.1,57.7l-1.7,5.7h1.1l0.5-1.6h1.8l0.5,1.6h1.1l-1.7-5.7
			H48.1z M33.1,60.9c0,1.3-0.5,1.7-1.2,1.7s-1.2-0.4-1.2-1.7v-0.7c0-1.3,0.5-1.7,1.2-1.7s1.2,0.4,1.2,1.7V60.9z M31.9,57.6
			c-1.3,0-2.1,0.7-2.1,2.6v0.7c0,1.8,0.8,2.6,2.1,2.6s2.1-0.8,2.1-2.6v-0.7C34.1,58.4,33.2,57.6,31.9,57.6L31.9,57.6z M123.7,60.9
			l0.5-1.6c0.1-0.3,0.1-0.6,0.2-0.9h0.1c0.1,0.3,0.1,0.6,0.2,0.9l0.5,1.6H123.7z M123.6,57.7l-1.7,5.7h1.1l0.5-1.6h1.8l0.5,1.6h1.1
			l-1.7-5.7L123.6,57.7z M38,59.7c0,0.9-0.4,1.2-1.2,1.2c-0.2,0-0.3,0-0.5,0v-2.4C37.5,58.5,38,58.5,38,59.7L38,59.7z M39,59.7
			L39,59.7c0-1.8-1.1-2.1-2.3-2.1c-0.5,0-1,0-1.5,0v5.7h1v-1.6h0.5c0.1,0,0.3,0,0.4,0l1.1,1.6h1.1l-1.3-1.9
			C38.7,61.3,39.1,60.8,39,59.7L39,59.7z M43.3,60c-0.1,0.2-0.3,0.5-0.4,0.8h0c-0.1-0.2-0.2-0.5-0.4-0.8l-1.2-2.4h-1.1v5.7h1v-3
			c0-0.4,0-0.7,0-1h0c0.1,0.3,0.3,0.6,0.4,0.8l0.9,1.7h0.9l0.9-1.7c0.1-0.3,0.3-0.5,0.4-0.8h0c0,0.4,0,0.7,0,1v3h1v-5.7h-1.1
			L43.3,60z M120.2,59.7c0,0.9-0.4,1.2-1.2,1.2c-0.2,0-0.3,0-0.5,0v-2.4C119.6,58.5,120.2,58.5,120.2,59.7L120.2,59.7z M121.2,59.7
			L121.2,59.7c0-1.8-1.1-2.1-2.3-2.1c-0.5,0-1,0-1.5,0v5.7h1v-1.6h0.5c0.1,0,0.3,0,0.4,0l1.1,1.6h1.1l-1.3-1.8
			C120.8,61.3,121.2,60.8,121.2,59.7L121.2,59.7z M79.4,60.9c0,1.3-0.5,1.7-1.6,1.7h-0.7v-4.1h0.7c1.1,0,1.6,0.4,1.6,1.7L79.4,60.9z
			 M77.8,57.6c-0.8,0-1.1,0-1.7,0v5.8c0.7,0,1,0,1.7,0c1.9,0,2.6-0.8,2.6-2.6v-0.7C80.4,58.4,79.7,57.6,77.8,57.6L77.8,57.6z
			 M81.6,63.4h1V58h-1V63.4z M101.1,60.9l0.5-1.6c0.1-0.3,0.1-0.6,0.2-0.9h0.1c0,0.3,0.1,0.6,0.2,0.9l0.5,1.6H101.1z M101,57.7
			l-1.7,5.7h1.1l0.5-1.6h1.8l0.5,1.6h1.1l-1.7-5.7L101,57.7z M81.5,57.7h0.9l1.2-1.1h-1.1L81.5,57.7z M86.3,60.1l-0.7-0.3
			c-0.6-0.2-0.7-0.4-0.7-0.7c0-0.5,0.4-0.6,1-0.6c0.6,0,1.1,0.1,1.5,0.1v-0.8c-0.5-0.1-1-0.2-1.6-0.2c-1.3,0-2,0.4-2,1.5
			c0,0.8,0.5,1.4,1.3,1.6l0.8,0.4c0.5,0.2,0.7,0.4,0.7,0.8c0,0.5-0.3,0.7-1,0.7c-0.6,0-1.1,0-1.7-0.1v0.8c0.6,0.1,1.2,0.2,1.7,0.2
			c1.2,0,1.9-0.6,1.9-1.6C87.6,60.9,87.2,60.5,86.3,60.1L86.3,60.1z M68.4,63.4h1v-5.7h-1V63.4z M66.1,59.7c0,0.9-0.4,1.2-1.2,1.2
			c-0.2,0-0.3,0-0.5,0v-2.4C65.6,58.5,66.1,58.5,66.1,59.7L66.1,59.7z M67.2,59.7L67.2,59.7c0-1.8-1.1-2.1-2.3-2.1c-0.5,0-1,0-1.5,0
			v5.7h1v-1.6h0.5c0.2,0,0.3,0,0.4,0l1.1,1.6h1.1l-1.3-1.8C66.8,61.3,67.2,60.8,67.2,59.7L67.2,59.7z M95.4,60.1v0.8
			c0,2,0.9,2.5,2.3,2.5c0.5,0,0.9-0.1,1.4-0.1v-0.8c-0.4,0-0.9,0.1-1.3,0.1c-0.9,0-1.4-0.3-1.4-1.7v-0.8c0-1.3,0.5-1.7,1.4-1.7
			c0.4,0,1,0,1.3,0.1v-0.8c-0.5-0.1-0.9-0.1-1.4-0.1C96.3,57.6,95.4,58.1,95.4,60.1L95.4,60.1z M93.2,63.4h1v-5.7h-1V63.4z
			 M73.9,60.9c0,1.3-0.5,1.7-1.2,1.7s-1.2-0.4-1.2-1.7v-0.7c0-1.3,0.5-1.7,1.2-1.7s1.2,0.4,1.2,1.7V60.9z M72.7,57.6
			c-1.3,0-2.1,0.7-2.1,2.6v0.7c0,1.8,0.8,2.6,2.1,2.6s2.2-0.8,2.2-2.6v-0.7C74.9,58.4,74,57.6,72.7,57.6L72.7,57.6z M141.9,60.1
			l-0.7-0.3c-0.5-0.2-0.7-0.4-0.7-0.7c0-0.5,0.4-0.6,1-0.6c0.6,0,1.1,0.1,1.5,0.1v-0.8c-0.5-0.1-1-0.2-1.6-0.2c-1.3,0-2,0.4-2,1.5
			c0,0.8,0.5,1.4,1.3,1.6l0.8,0.4c0.5,0.2,0.7,0.4,0.7,0.8c0,0.5-0.3,0.7-1,0.7c-0.6,0-1.1,0-1.7-0.1v0.8c0.6,0.1,1.2,0.2,1.7,0.2
			c1.2,0,1.9-0.6,1.9-1.6C143.2,60.9,142.9,60.5,141.9,60.1L141.9,60.1z M154.1,60c-0.1,0.2-0.3,0.5-0.4,0.8h0
			c-0.1-0.2-0.2-0.5-0.4-0.8l-1.2-2.4H151v5.7h1v-3c0-0.4,0-0.7,0-1h0c0.1,0.3,0.3,0.6,0.4,0.8l0.9,1.7h0.9l0.9-1.7
			c0.1-0.3,0.3-0.5,0.4-0.8h0c0,0.4,0,0.7,0,1v3h1v-5.7h-1.1L154.1,60z M160.9,56.6h-1.1l-0.9,1h-1.2v5.8h3.5v-0.9h-2.5v-1.7h2.3V60
			h-2.3v-1.5h2.5v-0.9h-1.3L160.9,56.6z M164.8,59.7c0,0.9-0.4,1.2-1.2,1.2c-0.2,0-0.3,0-0.5,0v-2.4
			C164.3,58.5,164.8,58.5,164.8,59.7L164.8,59.7z M165.8,59.7L165.8,59.7c0-1.8-1.1-2.1-2.3-2.1c-0.5,0-1,0-1.5,0v5.7h1v-1.6h0.5
			c0.2,0,0.3,0,0.4,0l1.1,1.6h1.1l-1.3-1.8C165.5,61.3,165.9,60.8,165.8,59.7L165.8,59.7z M130.5,57.7h-1v5.8h3.3v-0.9h-2.4
			L130.5,57.7z M181.6,60.1l-0.7-0.3c-0.5-0.2-0.7-0.4-0.7-0.7c0-0.5,0.3-0.6,1-0.6c0.6,0,1.1,0.1,1.5,0.1v-0.8
			c-0.5-0.1-1-0.2-1.6-0.2c-1.3,0-2,0.4-2,1.5c0,0.8,0.5,1.4,1.3,1.6l0.8,0.4c0.5,0.2,0.7,0.4,0.7,0.8c0,0.5-0.3,0.7-1,0.7
			c-0.6,0-1.1,0-1.7-0.1v0.8c0.6,0.1,1.2,0.2,1.7,0.2c1.2,0,1.9-0.6,1.9-1.6C182.9,60.9,182.6,60.5,181.6,60.1L181.6,60.1z
			 M167,63.4h1v-5.7h-1V63.4z M169.3,60.1v0.8c0,2,0.9,2.5,2.3,2.5c0.5,0,0.9-0.1,1.4-0.1v-0.8c-0.4,0-0.9,0.1-1.3,0.1
			c-0.9,0-1.4-0.3-1.4-1.7v-0.8c0-1.3,0.5-1.7,1.4-1.7c0.4,0,1,0,1.3,0.1v-0.8c-0.5-0.1-0.9-0.1-1.4-0.1
			C170.1,57.6,169.3,58.1,169.3,60.1L169.3,60.1z M175,60.9l0.5-1.6c0.1-0.3,0.1-0.6,0.2-0.9h0.1c0,0.3,0.1,0.6,0.2,0.9l0.5,1.6H175
			z M174.9,57.7l-1.7,5.7h1.1l0.5-1.6h1.8l0.5,1.6h1.1l-1.7-5.7H174.9z M87.7,58.5h1.7v4.9h1v-4.9H92v-0.9h-4.3L87.7,58.5z
			 M14.3,58.5H16v4.9h1v-4.9h1.7v-0.9h-4.3L14.3,58.5z M25.4,63.4h1v-2.5h2.3V60h-2.3v-1.5h2.5v-0.9h-3.5L25.4,63.4z M135.3,60.9
			l0.5-1.6c0.1-0.3,0.1-0.6,0.2-0.9h0.1c0,0.3,0.1,0.6,0.2,0.9l0.5,1.6H135.3z M135.2,57.7l-1.7,5.7h1.1l0.5-1.6h1.8l0.5,1.6h1.1
			l-1.7-5.7H135.2z M21.2,60.9l0.5-1.6c0.1-0.3,0.1-0.6,0.2-0.9h0.1c0,0.3,0.1,0.6,0.2,0.9l0.5,1.6H21.2z M21.1,57.7l-1.7,5.7h1.1
			l0.5-1.6h1.8l0.5,1.6h1.1l-1.7-5.7L21.1,57.7z M2.8,59.7c0,1-0.4,1.2-1.2,1.2c-0.2,0-0.4,0-0.5,0v-2.4h0.1c1.1,0,1.6,0,1.6,1.1
			L2.8,59.7z M1.5,57.6c-0.5,0-1,0-1.5,0v5.7h1v-1.6c0.2,0,0.4,0,0.5,0c1.1,0,2.2-0.3,2.2-2v-0.1C3.8,57.9,2.7,57.6,1.5,57.6
			L1.5,57.6z M10.7,60.9l0.5-1.6c0.1-0.3,0.1-0.6,0.2-0.9h0.1c0.1,0.3,0.1,0.6,0.2,0.9l0.5,1.6H10.7z M10.6,57.7l-1.7,5.7H10
			l0.5-1.6h1.8l0.5,1.6h1.1l-1.7-5.7H10.6z M6,57.7H5v5.8h3.3v-0.9H6V57.7z M146.9,60.9l0.5-1.6c0.1-0.3,0.1-0.6,0.2-0.9h0.1
			c0.1,0.3,0.1,0.6,0.2,0.9l0.5,1.6H146.9z M146.8,57.7l-1.7,5.7h1.1l0.5-1.6h1.8l0.5,1.6h1.1l-1.7-5.7H146.8z"/>
		<path id="Trazado_5" class="st7" d="M216.9,20.6c-1,0-1.9-0.8-1.9-1.9s0.8-1.9,1.9-1.9s1.9,0.8,1.9,1.9c0,0,0,0,0,0
			C218.8,19.7,217.9,20.6,216.9,20.6C216.9,20.6,216.9,20.6,216.9,20.6z M209.7,66.2c-0.3,0-0.7,0.1-1,0.2l-6.8-13.8
			c1.5-0.8,2.1-2.7,1.3-4.2c-0.2-0.4-0.5-0.8-0.9-1.1l13.2-25.9l0.1,0.1L209.7,66.2z M211.6,69.3c0,1-0.8,1.9-1.9,1.9
			c-1,0-1.9-0.8-1.9-1.9c0-1,0.8-1.9,1.9-1.9c0,0,0,0,0,0C210.7,67.4,211.6,68.3,211.6,69.3L211.6,69.3z M198.5,49.9
			c0-1,0.8-1.9,1.9-1.9c1,0,1.9,0.8,1.9,1.9c0,1-0.8,1.9-1.9,1.9l0,0C199.3,51.7,198.5,50.9,198.5,49.9L198.5,49.9z M186.8,21.3
			c0.7-0.5,1.2-1.2,1.3-2h25.8c0.1,0.5,0.3,1,0.7,1.4l-13.4,26.2c-0.5-0.1-1-0.1-1.5,0L186.8,21.3z M183.2,18.7c0-1,0.8-1.9,1.9-1.9
			c1,0,1.9,0.8,1.9,1.9c0,1-0.8,1.9-1.9,1.9c0,0,0,0,0,0C184,20.6,183.2,19.7,183.2,18.7L183.2,18.7z M156.6,20.6
			c-1,0-1.9-0.8-1.9-1.9s0.8-1.9,1.9-1.9s1.9,0.8,1.9,1.9c0,0,0,0,0,0C158.4,19.7,157.6,20.6,156.6,20.6L156.6,20.6z M172.4,1.2
			c1,0,1.9,0.8,1.9,1.9v0c0,0.4-0.1,0.7-0.3,1l-0.8,0.7l0,0c-0.9,0.4-2.1,0-2.5-1c-0.4-0.9,0-2.1,1-2.5
			C171.9,1.3,172.1,1.2,172.4,1.2L172.4,1.2z M201,1.2c1,0,1.9,0.8,1.9,1.9S202,5,201,5s-1.9-0.8-1.9-1.9c0,0,0,0,0,0
			C199.1,2.1,199.9,1.2,201,1.2C200.9,1.2,200.9,1.2,201,1.2L201,1.2z M159,16.8l11.3-11.4c1,1,2.5,1.2,3.7,0.5l8.7,10.9
			c-0.3,0.4-0.6,0.9-0.7,1.4h-22.4C159.5,17.6,159.3,17.1,159,16.8z M183.6,15.9L174.9,5c0.3-0.4,0.5-0.8,0.6-1.3h22.5
			c0.1,0.5,0.3,0.9,0.6,1.2L186.6,16C185.7,15.5,184.6,15.4,183.6,15.9L183.6,15.9z M213.8,18.1h-25.8c-0.1-0.4-0.3-0.8-0.5-1.2
			l11.9-11.1c1,0.6,2.3,0.6,3.3-0.1l11.7,11.2C214.1,17.2,213.9,17.6,213.8,18.1L213.8,18.1z M216.9,15.6c-0.6,0-1.1,0.2-1.6,0.4
			L203.6,4.8c0.9-1.4,0.5-3.4-0.9-4.3c-1.4-0.9-3.4-0.5-4.3,0.9c-0.2,0.3-0.4,0.7-0.4,1.1h-22.4c-0.3-1.7-2-2.8-3.7-2.4
			c-1.7,0.3-2.8,2-2.4,3.7c0,0.2,0.1,0.4,0.2,0.6L158,16c-0.4-0.2-0.9-0.4-1.5-0.4c-1.7,0-3.1,1.4-3.1,3.1c0,1.7,1.4,3.1,3.1,3.1
			c1.5,0,2.8-1,3.1-2.5H182c0.3,1.4,1.6,2.5,3.1,2.5c0.2,0,0.4,0,0.6-0.1l12.9,25.6c-1.4,1-1.7,3-0.6,4.3c0.6,0.8,1.5,1.3,2.5,1.3
			c0.1,0,0.2,0,0.2,0l7,14.1c-1.3,1.2-1.3,3.1-0.2,4.4c1.2,1.3,3.1,1.3,4.4,0.2c1.3-1.2,1.3-3.1,0.2-4.4c-0.3-0.3-0.7-0.6-1.1-0.8
			l5.9-44.6l0.1,0c1.7,0,3.1-1.4,3.1-3.1S218.6,15.6,216.9,15.6C216.9,15.6,216.9,15.6,216.9,15.6L216.9,15.6z"/>
		<g id="Grupo_6877" transform="translate(0.205 28.568)">
			<path id="Trazado_6" class="st7" d="M151.5,7.4c0.3-1.1,0.5-2.3,0.7-3.5h0.2c0.2,1.2,0.4,2.4,0.7,3.5l1.6,6h-4.8L151.5,7.4z
				 M155.4,17.4l1.6,5.7h5.8l-6.2-22.5H148l-6.2,22.5h5.7l1.6-5.7H155.4z M142.4,0.5h-18.3v4h6.4v18.6h5.5V4.5h6.4L142.4,0.5z
				 M82.8,23.1V0.6h-5v11c0,1.4,0,2.8,0.1,3.9h-0.1c-0.4-1-1-2.2-1.6-3.2L69.8,0.6h-5.6v22.5h5v-11c0-1.2-0.1-2.5-0.1-3.7h0.1
				c0.4,1,1,2.2,1.6,3.1l6.4,11.5H82.8z M115.4,23.6c2,0,4-0.2,6-0.6v-4.1c-1.5,0.1-3.6,0.2-5.4,0.2c-3.3,0-4.9-1.1-4.9-6.1v-2.6
				c0-4.9,1.6-6,4.9-6c1.8,0,4,0.1,5.5,0.3V0.7c-2-0.4-4-0.6-6-0.6c-6.3,0-9.8,2.3-9.8,10.5v2.6C105.6,21.2,109.1,23.6,115.4,23.6
				L115.4,23.6z M170.1,13l3,1.4c1.9,0.9,2.4,1.4,2.4,2.7c0,1.7-1,2.5-3.3,2.5c-2.8-0.1-4.8-0.3-6.7-0.5v3.7
				c2.4,0.5,4.9,0.7,7.3,0.7c5.1,0,8.2-2.2,8.2-6.9c0-3.6-1.7-5.4-5.3-6.9l-2.9-1.3c-1.9-0.9-2.3-1.3-2.3-2.5c0-1.6,1.1-2,3.2-2
				c2.3,0,4.2,0.2,6.3,0.4V0.8c-2.1-0.5-4.3-0.7-6.5-0.8c-5.4,0-8.4,1.8-8.4,6.2C164.9,10,166.9,11.6,170.1,13L170.1,13z M45.9,12.1
				c0-1.2-0.1-2.5-0.1-3.7h0.1c0.4,1,1,2.2,1.6,3.1l6.4,11.5h5.7V0.6h-5v11c0,1.4,0,2.8,0.1,3.9h-0.1c-0.5-1-1-2.2-1.6-3.2L46.5,0.6
				h-5.6v22.5h5V12.1z M102.4,19.1h-9.5v-5.3h8.9v-4h-8.9V4.5h9.5v-4h-15v22.6h15L102.4,19.1L102.4,19.1z M23.7,10.7
				c0-4.7,1.5-6.2,4.1-6.2c2.6,0,4.1,1.5,4.1,6.2v2.3c0,4.8-1.5,6.2-4.1,6.2c-2.5,0-4.1-1.5-4.1-6.2V10.7z M27.7,23.6
				c5.7,0,9.6-2.9,9.6-10.7v-2.3C37.3,2.8,33.4,0,27.7,0c-5.6,0-9.5,2.8-9.5,10.7V13C18.2,20.8,22.1,23.6,27.7,23.6L27.7,23.6z
				 M181,16.7L181,16.7z M9.8,23.6c2,0,4-0.2,6-0.6v-4.1c-1.5,0.1-3.6,0.2-5.4,0.2c-3.3,0-4.9-1.1-4.9-6.1v-2.6c0-4.9,1.6-6,4.9-6
				c1.8,0,4,0.1,5.5,0.3V0.7c-2-0.4-4-0.6-6-0.6C3.5,0,0,2.3,0,10.5v2.6C0,21.2,3.5,23.6,9.8,23.6z"/>
		</g>
	</g>
</g>
</svg>
